<mxfile host="Electron" modified="2024-05-13T07:03:41.010Z" agent="Mozilla/5.0 (Windows NT 10.0; Win64; x64) AppleWebKit/537.36 (KHTML, like Gecko) draw.io/24.0.4 Chrome/120.0.6099.109 Electron/28.1.0 Safari/537.36" etag="Q2YyN8Bbu3uc6AtQRmXc" version="24.0.4" type="device">
  <diagram id="C5RBs43oDa-KdzZeNtuy" name="Page-1">
    <mxGraphModel dx="1144" dy="787" grid="1" gridSize="10" guides="1" tooltips="1" connect="1" arrows="1" fold="1" page="1" pageScale="1" pageWidth="827" pageHeight="1169" math="0" shadow="0">
      <root>
        <mxCell id="WIyWlLk6GJQsqaUBKTNV-0" />
        <mxCell id="WIyWlLk6GJQsqaUBKTNV-1" parent="WIyWlLk6GJQsqaUBKTNV-0" />
        <mxCell id="hfW2xwjo7nrQYyzOgWNQ-0" value="Start" style="strokeWidth=2;html=1;shape=mxgraph.flowchart.terminator;whiteSpace=wrap;" vertex="1" parent="WIyWlLk6GJQsqaUBKTNV-1">
          <mxGeometry x="56" y="40" width="100" height="40" as="geometry" />
        </mxCell>
        <mxCell id="hfW2xwjo7nrQYyzOgWNQ-1" value="X=eingabe()" style="shape=parallelogram;perimeter=parallelogramPerimeter;whiteSpace=wrap;html=1;fixedSize=1;" vertex="1" parent="WIyWlLk6GJQsqaUBKTNV-1">
          <mxGeometry x="31" y="130" width="150" height="50" as="geometry" />
        </mxCell>
        <mxCell id="hfW2xwjo7nrQYyzOgWNQ-2" value="X==3" style="rhombus;whiteSpace=wrap;html=1;" vertex="1" parent="WIyWlLk6GJQsqaUBKTNV-1">
          <mxGeometry x="21" y="230" width="170" height="90" as="geometry" />
        </mxCell>
        <mxCell id="hfW2xwjo7nrQYyzOgWNQ-3" value="ausgabe(&#39;Sieg&#39;)" style="shape=parallelogram;perimeter=parallelogramPerimeter;whiteSpace=wrap;html=1;fixedSize=1;" vertex="1" parent="WIyWlLk6GJQsqaUBKTNV-1">
          <mxGeometry x="31" y="400" width="150" height="50" as="geometry" />
        </mxCell>
        <mxCell id="hfW2xwjo7nrQYyzOgWNQ-4" value="" style="endArrow=classic;html=1;rounded=0;exitX=0.5;exitY=1;exitDx=0;exitDy=0;exitPerimeter=0;entryX=0.5;entryY=0;entryDx=0;entryDy=0;" edge="1" parent="WIyWlLk6GJQsqaUBKTNV-1" source="hfW2xwjo7nrQYyzOgWNQ-0" target="hfW2xwjo7nrQYyzOgWNQ-1">
          <mxGeometry width="50" height="50" relative="1" as="geometry">
            <mxPoint x="186" y="230" as="sourcePoint" />
            <mxPoint x="216" y="220" as="targetPoint" />
          </mxGeometry>
        </mxCell>
        <mxCell id="hfW2xwjo7nrQYyzOgWNQ-5" value="" style="endArrow=classic;html=1;rounded=0;exitX=0.5;exitY=1;exitDx=0;exitDy=0;entryX=0.5;entryY=0;entryDx=0;entryDy=0;" edge="1" parent="WIyWlLk6GJQsqaUBKTNV-1" source="hfW2xwjo7nrQYyzOgWNQ-1" target="hfW2xwjo7nrQYyzOgWNQ-2">
          <mxGeometry width="50" height="50" relative="1" as="geometry">
            <mxPoint x="116" y="90" as="sourcePoint" />
            <mxPoint x="116" y="140" as="targetPoint" />
          </mxGeometry>
        </mxCell>
        <mxCell id="hfW2xwjo7nrQYyzOgWNQ-6" value="" style="endArrow=classic;html=1;rounded=0;exitX=0.5;exitY=1;exitDx=0;exitDy=0;entryX=0.5;entryY=0;entryDx=0;entryDy=0;" edge="1" parent="WIyWlLk6GJQsqaUBKTNV-1" source="hfW2xwjo7nrQYyzOgWNQ-2" target="hfW2xwjo7nrQYyzOgWNQ-3">
          <mxGeometry width="50" height="50" relative="1" as="geometry">
            <mxPoint x="166" y="270" as="sourcePoint" />
            <mxPoint x="216" y="220" as="targetPoint" />
          </mxGeometry>
        </mxCell>
        <mxCell id="hfW2xwjo7nrQYyzOgWNQ-14" style="edgeStyle=orthogonalEdgeStyle;rounded=0;orthogonalLoop=1;jettySize=auto;html=1;" edge="1" parent="WIyWlLk6GJQsqaUBKTNV-1" source="hfW2xwjo7nrQYyzOgWNQ-7" target="hfW2xwjo7nrQYyzOgWNQ-10">
          <mxGeometry relative="1" as="geometry" />
        </mxCell>
        <mxCell id="hfW2xwjo7nrQYyzOgWNQ-16" value="nein" style="edgeLabel;html=1;align=center;verticalAlign=middle;resizable=0;points=[];" vertex="1" connectable="0" parent="hfW2xwjo7nrQYyzOgWNQ-14">
          <mxGeometry x="-0.39" y="-3" relative="1" as="geometry">
            <mxPoint as="offset" />
          </mxGeometry>
        </mxCell>
        <mxCell id="hfW2xwjo7nrQYyzOgWNQ-7" value="X==1" style="rhombus;whiteSpace=wrap;html=1;" vertex="1" parent="WIyWlLk6GJQsqaUBKTNV-1">
          <mxGeometry x="276" y="230" width="170" height="90" as="geometry" />
        </mxCell>
        <mxCell id="hfW2xwjo7nrQYyzOgWNQ-24" style="edgeStyle=orthogonalEdgeStyle;rounded=0;orthogonalLoop=1;jettySize=auto;html=1;exitX=0.5;exitY=1;exitDx=0;exitDy=0;" edge="1" parent="WIyWlLk6GJQsqaUBKTNV-1" source="hfW2xwjo7nrQYyzOgWNQ-8">
          <mxGeometry relative="1" as="geometry">
            <mxPoint x="358" y="600" as="targetPoint" />
          </mxGeometry>
        </mxCell>
        <mxCell id="hfW2xwjo7nrQYyzOgWNQ-8" value="ausgabe(&#39;Unentschieden&#39;)" style="shape=parallelogram;perimeter=parallelogramPerimeter;whiteSpace=wrap;html=1;fixedSize=1;" vertex="1" parent="WIyWlLk6GJQsqaUBKTNV-1">
          <mxGeometry x="270" y="400" width="176" height="50" as="geometry" />
        </mxCell>
        <mxCell id="hfW2xwjo7nrQYyzOgWNQ-9" value="" style="endArrow=classic;html=1;rounded=0;exitX=0.5;exitY=1;exitDx=0;exitDy=0;entryX=0.5;entryY=0;entryDx=0;entryDy=0;" edge="1" parent="WIyWlLk6GJQsqaUBKTNV-1" source="hfW2xwjo7nrQYyzOgWNQ-7" target="hfW2xwjo7nrQYyzOgWNQ-8">
          <mxGeometry width="50" height="50" relative="1" as="geometry">
            <mxPoint x="176" y="280" as="sourcePoint" />
            <mxPoint x="226" y="230" as="targetPoint" />
          </mxGeometry>
        </mxCell>
        <mxCell id="hfW2xwjo7nrQYyzOgWNQ-10" value="X==0&lt;div&gt;&lt;br&gt;&lt;/div&gt;" style="rhombus;whiteSpace=wrap;html=1;" vertex="1" parent="WIyWlLk6GJQsqaUBKTNV-1">
          <mxGeometry x="526" y="230" width="170" height="90" as="geometry" />
        </mxCell>
        <mxCell id="hfW2xwjo7nrQYyzOgWNQ-23" style="edgeStyle=orthogonalEdgeStyle;rounded=0;orthogonalLoop=1;jettySize=auto;html=1;" edge="1" parent="WIyWlLk6GJQsqaUBKTNV-1" source="hfW2xwjo7nrQYyzOgWNQ-11">
          <mxGeometry relative="1" as="geometry">
            <mxPoint x="611" y="600" as="targetPoint" />
          </mxGeometry>
        </mxCell>
        <mxCell id="hfW2xwjo7nrQYyzOgWNQ-11" value="ausgabe(&#39;Niederlage&#39;)" style="shape=parallelogram;perimeter=parallelogramPerimeter;whiteSpace=wrap;html=1;fixedSize=1;" vertex="1" parent="WIyWlLk6GJQsqaUBKTNV-1">
          <mxGeometry x="536" y="400" width="150" height="50" as="geometry" />
        </mxCell>
        <mxCell id="hfW2xwjo7nrQYyzOgWNQ-12" value="" style="endArrow=classic;html=1;rounded=0;exitX=0.5;exitY=1;exitDx=0;exitDy=0;entryX=0.5;entryY=0;entryDx=0;entryDy=0;" edge="1" parent="WIyWlLk6GJQsqaUBKTNV-1" source="hfW2xwjo7nrQYyzOgWNQ-10" target="hfW2xwjo7nrQYyzOgWNQ-11">
          <mxGeometry width="50" height="50" relative="1" as="geometry">
            <mxPoint x="661" y="270" as="sourcePoint" />
            <mxPoint x="711" y="220" as="targetPoint" />
          </mxGeometry>
        </mxCell>
        <mxCell id="hfW2xwjo7nrQYyzOgWNQ-13" value="" style="endArrow=classic;html=1;rounded=0;exitX=1;exitY=0.5;exitDx=0;exitDy=0;entryX=0;entryY=0.5;entryDx=0;entryDy=0;" edge="1" parent="WIyWlLk6GJQsqaUBKTNV-1" source="hfW2xwjo7nrQYyzOgWNQ-2" target="hfW2xwjo7nrQYyzOgWNQ-7">
          <mxGeometry width="50" height="50" relative="1" as="geometry">
            <mxPoint x="246" y="180" as="sourcePoint" />
            <mxPoint x="296" y="130" as="targetPoint" />
          </mxGeometry>
        </mxCell>
        <mxCell id="hfW2xwjo7nrQYyzOgWNQ-15" value="nein" style="edgeLabel;html=1;align=center;verticalAlign=middle;resizable=0;points=[];" vertex="1" connectable="0" parent="hfW2xwjo7nrQYyzOgWNQ-13">
          <mxGeometry x="-0.2612" y="-1" relative="1" as="geometry">
            <mxPoint as="offset" />
          </mxGeometry>
        </mxCell>
        <mxCell id="hfW2xwjo7nrQYyzOgWNQ-17" value="ausgabe(&#39;UnzulÃ¤ssige Eingabe&#39;)" style="shape=parallelogram;perimeter=parallelogramPerimeter;whiteSpace=wrap;html=1;fixedSize=1;" vertex="1" parent="WIyWlLk6GJQsqaUBKTNV-1">
          <mxGeometry x="740" y="400" width="150" height="50" as="geometry" />
        </mxCell>
        <mxCell id="hfW2xwjo7nrQYyzOgWNQ-18" style="edgeStyle=orthogonalEdgeStyle;rounded=0;orthogonalLoop=1;jettySize=auto;html=1;exitX=1;exitY=0.5;exitDx=0;exitDy=0;entryX=0.587;entryY=0.032;entryDx=0;entryDy=0;entryPerimeter=0;" edge="1" parent="WIyWlLk6GJQsqaUBKTNV-1" source="hfW2xwjo7nrQYyzOgWNQ-10" target="hfW2xwjo7nrQYyzOgWNQ-17">
          <mxGeometry relative="1" as="geometry" />
        </mxCell>
        <mxCell id="hfW2xwjo7nrQYyzOgWNQ-19" value="nein" style="edgeLabel;html=1;align=center;verticalAlign=middle;resizable=0;points=[];" vertex="1" connectable="0" parent="hfW2xwjo7nrQYyzOgWNQ-18">
          <mxGeometry x="-0.3893" y="-2" relative="1" as="geometry">
            <mxPoint as="offset" />
          </mxGeometry>
        </mxCell>
        <mxCell id="hfW2xwjo7nrQYyzOgWNQ-20" value="Ende" style="strokeWidth=2;html=1;shape=mxgraph.flowchart.terminator;whiteSpace=wrap;" vertex="1" parent="WIyWlLk6GJQsqaUBKTNV-1">
          <mxGeometry x="56" y="580" width="100" height="40" as="geometry" />
        </mxCell>
        <mxCell id="hfW2xwjo7nrQYyzOgWNQ-21" style="edgeStyle=orthogonalEdgeStyle;rounded=0;orthogonalLoop=1;jettySize=auto;html=1;exitX=0.5;exitY=1;exitDx=0;exitDy=0;entryX=0.5;entryY=0;entryDx=0;entryDy=0;entryPerimeter=0;" edge="1" parent="WIyWlLk6GJQsqaUBKTNV-1" source="hfW2xwjo7nrQYyzOgWNQ-3" target="hfW2xwjo7nrQYyzOgWNQ-20">
          <mxGeometry relative="1" as="geometry" />
        </mxCell>
        <mxCell id="hfW2xwjo7nrQYyzOgWNQ-22" style="edgeStyle=orthogonalEdgeStyle;rounded=0;orthogonalLoop=1;jettySize=auto;html=1;exitX=0.5;exitY=1;exitDx=0;exitDy=0;entryX=1;entryY=0.5;entryDx=0;entryDy=0;entryPerimeter=0;" edge="1" parent="WIyWlLk6GJQsqaUBKTNV-1" source="hfW2xwjo7nrQYyzOgWNQ-17" target="hfW2xwjo7nrQYyzOgWNQ-20">
          <mxGeometry relative="1" as="geometry" />
        </mxCell>
      </root>
    </mxGraphModel>
  </diagram>
</mxfile>
